<svg width="32" height="31" viewBox="0 0 32 31" fill="none" xmlns="http://www.w3.org/2000/svg">
<path d="M9.21436 4.12646V12H6.49707V4.12646H2.22705V1.93652H13.4917V4.12646H9.21436ZM28.1694 6.97559C28.1694 7.83984 28.0107 8.604 27.6934 9.26807C27.376 9.92725 26.9219 10.479 26.3311 10.9233C25.7402 11.3677 25.0225 11.7046 24.1777 11.9341C23.3379 12.1587 22.3931 12.271 21.3433 12.271C20.2935 12.271 19.3438 12.1587 18.4941 11.9341C17.6494 11.7046 16.9292 11.3677 16.3335 10.9233C15.7378 10.479 15.2788 9.92725 14.9565 9.26807C14.6343 8.604 14.4731 7.83984 14.4731 6.97559C14.4731 6.11133 14.6343 5.34961 14.9565 4.69043C15.2788 4.02637 15.7378 3.47217 16.3335 3.02783C16.9292 2.5835 17.6494 2.24902 18.4941 2.02441C19.3438 1.79492 20.2935 1.68018 21.3433 1.68018C22.3931 1.68018 23.3379 1.79492 24.1777 2.02441C25.0225 2.24902 25.7402 2.5835 26.3311 3.02783C26.9219 3.47217 27.376 4.02637 27.6934 4.69043C28.0107 5.34961 28.1694 6.11133 28.1694 6.97559ZM25.4229 6.97559C25.4229 6.59961 25.3618 6.22607 25.2397 5.85498C25.1226 5.479 24.9102 5.14209 24.6025 4.84424C24.2998 4.54639 23.8848 4.30469 23.3574 4.11914C22.8301 3.93359 22.1587 3.84082 21.3433 3.84082C20.7964 3.84082 20.3154 3.88477 19.9004 3.97266C19.4854 4.05566 19.1265 4.17285 18.8237 4.32422C18.521 4.47559 18.2671 4.65381 18.062 4.85889C17.8569 5.05908 17.6934 5.27637 17.5713 5.51074C17.4492 5.74023 17.3613 5.98193 17.3076 6.23584C17.2588 6.48486 17.2344 6.73145 17.2344 6.97559C17.2344 7.22461 17.2588 7.47607 17.3076 7.72998C17.3613 7.98389 17.4492 8.22803 17.5713 8.4624C17.6934 8.69189 17.8569 8.90674 18.062 9.10693C18.2671 9.30713 18.521 9.48291 18.8237 9.63428C19.1265 9.78076 19.4854 9.89795 19.9004 9.98584C20.3154 10.0688 20.7964 10.1104 21.3433 10.1104C22.1587 10.1104 22.8301 10.0176 23.3574 9.83203C23.8848 9.64648 24.2998 9.40479 24.6025 9.10693C24.9102 8.80908 25.1226 8.47461 25.2397 8.10352C25.3618 7.72754 25.4229 7.35156 25.4229 6.97559Z" fill="#101010"/>
<line x1="12" y1="15.5" x2="20" y2="15.5" stroke="#101010"/>
<path d="M19.5459 19V25.1255L22.7832 19H25.043L28.2803 25.1255L28.2803 19H30.6353L30.6353 27.7217H27.436L23.9131 21.1201L20.3901 27.7217H17.2036V19L19.5459 19ZM1.2417 24.0244C1.2417 23.1602 1.40039 22.396 1.71777 21.7319C2.03516 21.0728 2.48926 20.521 3.08008 20.0767C3.6709 19.6323 4.38867 19.2954 5.2334 19.0659C6.07324 18.8413 7.01807 18.729 8.06787 18.729C9.11768 18.729 10.0674 18.8413 10.917 19.0659C11.7617 19.2954 12.4819 19.6323 13.0776 20.0767C13.6733 20.521 14.1323 21.0728 14.4546 21.7319C14.7769 22.396 14.938 23.1602 14.938 24.0244C14.938 24.8887 14.7769 25.6504 14.4546 26.3096C14.1323 26.9736 13.6733 27.5278 13.0776 27.9722C12.4819 28.4165 11.7617 28.751 10.917 28.9756C10.0674 29.2051 9.11768 29.3198 8.06787 29.3198C7.01807 29.3198 6.07324 29.2051 5.2334 28.9756C4.38867 28.751 3.6709 28.4165 3.08008 27.9722C2.48926 27.5278 2.03516 26.9736 1.71777 26.3096C1.40039 25.6504 1.2417 24.8887 1.2417 24.0244ZM3.98828 24.0244C3.98828 24.4004 4.04932 24.7739 4.17139 25.145C4.28857 25.521 4.50098 25.8579 4.80859 26.1558C5.11133 26.4536 5.52637 26.6953 6.05371 26.8809C6.58105 27.0664 7.25244 27.1592 8.06787 27.1592C8.61475 27.1592 9.0957 27.1152 9.51074 27.0273C9.92578 26.9443 10.2847 26.8271 10.5874 26.6758C10.8901 26.5244 11.144 26.3462 11.3491 26.1411C11.5542 25.9409 11.7178 25.7236 11.8398 25.4893C11.9619 25.2598 12.0498 25.0181 12.1035 24.7642C12.1523 24.5151 12.1768 24.2686 12.1768 24.0244C12.1768 23.7754 12.1523 23.5239 12.1035 23.27C12.0498 23.0161 11.9619 22.772 11.8398 22.5376C11.7178 22.3081 11.5542 22.0933 11.3491 21.8931C11.144 21.6929 10.8901 21.5171 10.5874 21.3657C10.2847 21.2192 9.92578 21.1021 9.51074 21.0142C9.0957 20.9312 8.61475 20.8896 8.06787 20.8896C7.25244 20.8896 6.58105 20.9824 6.05371 21.168C5.52637 21.3535 5.11133 21.5952 4.80859 21.8931C4.50098 22.1909 4.28857 22.5254 4.17139 22.8965C4.04932 23.2725 3.98828 23.6484 3.98828 24.0244Z" fill="#101010"/>
</svg>
